[Header]
# KeyWord<space>Value<CR>FileType htr
DataType HTRS
FileVersion 1.0
NumSegments 32
NumFrames 4
DataFrameRate 24
EulerRotationOrder XYZ
CalibrationUnits m
RotationUnits Degrees
GlobalAxisofGravity Z
BoneLengthAxis Z
BoneLengthAxis Z
ScaleFactor 1.00
[SegmentNames&Hierarchy]
# ObjectName<tab>ParentObjectName<CR>
pelvis	GLOBAL
spine01	pelvis
spine02	spine01
spine03	spine02
neck	spine03
head	neck
Collar_left	spine03
shoulder_up_left	Collar_left
bicep_up_left	shoulder_up_left
forearm_up_left	bicep_up_left
hand_up_left	forearm_up_left
shoulder_down_left	Collar_left
bicep_down_left	shoulder_down_left
forearm_down_left	bicep_down_left
hand_down_left	forearm_down_left
Collar_right	spine03
shoulder_up_right	Collar_right
bicep_up_right	shoulder_up_right
forearm_up_right	bicep_up_right
hand_up_right	forearm_up_right
shoulder_down_right	Collar_right
bicep_down_right	shoulder_down_right
forearm_down_right	bicep_down_right
hand_down_right	forearm_down_right
hip_left	pelvis
thigh_left	hip_left
shin_left	thigh_left
foot_left	shin_left
hip_right	pelvis
thigh_right	hip_right
shin_right	thigh_right
foot_right	shin_right
[BasePosition]
# ObjectName<tab>Tx<tab>Ty<tab>Tz<tab>Rx<tab>Ry<tab>Rz<tab>BoneLength<CR>
pelvis	0.000000	-0.438872	6.292977	90.000003	-0.000000	0.000000	1.000000
spine01	0.000000	-0.438872	7.970248	90.000003	-0.000000	0.000000	1.000000
spine02	0.000000	-0.438872	10.340697	90.000003	-0.000000	0.000000	1.000000
spine03	0.000000	-0.438872	13.021563	90.000003	-0.000000	0.000000	1.000000
neck	0.000000	-0.438872	16.182161	90.000003	-0.000000	0.000000	1.000000
head	0.000000	-0.438872	17.452044	90.000003	-0.000000	0.000014	1.000000
Collar_left	0.000000	-0.438872	16.182161	114.324943	-109.283163	-3.448282	1.000000
shoulder_up_left	-2.246972	-1.353188	15.416688	89.999955	-101.168646	0.000051	1.000000
bicep_up_left	-4.544489	-1.353188	14.963074	94.597615	-95.170613	-0.305692	1.000000
forearm_up_left	-8.587797	-1.657960	14.597347	85.600206	-93.126604	-0.279561	1.000000
hand_up_left	-12.306015	-1.353188	14.394166	85.300436	-97.657908	-0.750653	1.000000
shoulder_down_left	-2.246972	-1.353188	15.416688	97.171845	-144.053812	-0.627842	1.000000
bicep_down_left	-4.260035	-1.761673	12.646806	95.982825	-137.161086	0.000016	1.000000
forearm_down_left	-6.332484	-2.081106	10.411811	78.293864	-138.751741	0.000033	1.000000
hand_down_left	-8.648752	-1.353187	7.770453	89.999989	-141.340205	0.000017	1.000000
Collar_right	0.000000	-0.438872	16.182161	114.324943	109.283163	3.448282	1.000000
shoulder_up_right	2.246972	-1.353188	15.416688	89.999955	101.168646	-0.000051	1.000000
bicep_up_right	4.544489	-1.353188	14.963074	94.597615	95.170613	0.305692	1.000000
forearm_up_right	8.587797	-1.657960	14.597347	85.600206	93.126604	0.279561	1.000000
hand_up_right	12.306015	-1.353188	14.394166	85.300436	97.657908	0.750653	1.000000
shoulder_down_right	2.246972	-1.353188	15.416688	97.171845	144.053812	0.627842	1.000000
bicep_down_right	4.260035	-1.761673	12.646806	95.982825	137.161086	-0.000016	1.000000
forearm_down_right	6.332484	-2.081106	10.411811	78.293864	138.751741	-0.000033	1.000000
hand_down_right	8.648752	-1.353187	7.770453	89.999989	141.340205	-0.000017	1.000000
hip_left	0.000000	-0.438872	6.292977	-6.241914	-0.000005	89.999996	1.000000
thigh_left	-2.600721	-0.438872	6.008523	-79.303489	-0.000003	90.000003	1.000000
shin_left	-3.000499	-0.438872	3.892051	-90.969439	1.681318	89.968611	1.000000
foot_left	-2.953466	-0.520526	1.111133	-93.081914	-75.718200	93.179995	1.000000
hip_right	0.000000	-0.438872	6.292977	-6.241914	0.000005	-89.999996	1.000000
thigh_right	2.600721	-0.438872	6.008523	-79.303489	0.000003	-90.000003	1.000000
shin_right	3.000499	-0.438872	3.892051	-90.969439	-1.681318	-89.968611	1.000000
foot_right	2.953466	-0.520526	1.111133	-93.081914	75.718200	-93.179995	1.000000
[pelvis]
# Tx<tab>Ty<tab>Tz<tab>Rx<tab>Ry<tab>Rz<tab>BoneScaleFactor<CR>
1	0.000000	0.000000	0.000000	0.000000	-0.000000	0.000000	1.000000
2	0.000000	0.000000	0.000000	0.000000	-0.000000	0.000000	1.000000
3	0.000000	0.000000	0.000000	0.000000	-0.000000	0.000000	1.000000
4	0.000000	0.000000	0.000000	0.000000	-0.000000	0.000000	1.000000
[spine01]
# Tx<tab>Ty<tab>Tz<tab>Rx<tab>Ry<tab>Rz<tab>BoneScaleFactor<CR>
1	0.000000	0.000000	0.000000	0.000000	-0.000000	0.000000	1.000000
2	0.000000	0.000000	0.000000	-0.056293	-0.000000	0.000000	1.000000
3	0.000000	0.000000	0.000000	-0.219897	-0.000000	0.000000	1.000000
4	0.000000	0.000000	0.000000	-0.482923	-0.000000	0.000000	1.000000
[spine02]
# Tx<tab>Ty<tab>Tz<tab>Rx<tab>Ry<tab>Rz<tab>BoneScaleFactor<CR>
1	0.000000	0.000000	0.000000	0.000000	-0.000000	0.000000	1.000000
2	0.000000	0.000000	0.000000	-0.068954	-0.000000	0.000000	1.000000
3	0.000000	0.000000	0.000000	-0.269367	-0.000000	0.000000	1.000000
4	0.000000	0.000000	0.000000	-0.591611	-0.000000	0.000000	1.000000
[spine03]
# Tx<tab>Ty<tab>Tz<tab>Rx<tab>Ry<tab>Rz<tab>BoneScaleFactor<CR>
1	0.000000	0.000000	0.000000	0.000000	-0.000000	0.000000	1.000000
2	0.000000	0.000000	0.000000	-0.053388	-0.000000	0.000000	1.000000
3	0.000000	0.000000	0.000000	-0.208545	-0.000000	0.000000	1.000000
4	0.000000	0.000001	0.000000	-0.457985	-0.000000	0.000000	1.000000
[neck]
# Tx<tab>Ty<tab>Tz<tab>Rx<tab>Ry<tab>Rz<tab>BoneScaleFactor<CR>
1	0.000000	0.000000	0.000000	0.000000	-0.000000	0.000000	1.000000
2	0.000000	0.000000	-0.000000	-0.000000	-0.000000	0.000000	1.000000
3	0.000000	0.000000	0.000000	0.000000	-0.000000	0.000000	1.000000
4	0.000000	0.000000	0.000000	0.000000	-0.000000	0.000000	1.000000
[head]
# Tx<tab>Ty<tab>Tz<tab>Rx<tab>Ry<tab>Rz<tab>BoneScaleFactor<CR>
1	0.000000	0.000000	-0.000000	0.000000	-0.000000	0.000000	1.000000
2	0.000000	0.000000	0.000000	-0.009098	0.000000	0.000000	1.000000
3	0.000000	0.000000	0.000000	-0.035537	0.000000	0.000000	1.000000
4	0.000000	0.000000	0.000000	-0.078031	0.000000	0.000000	1.000000
[Collar_left]
# Tx<tab>Ty<tab>Tz<tab>Rx<tab>Ry<tab>Rz<tab>BoneScaleFactor<CR>
1	0.000000	0.000000	0.000000	-0.000000	-0.000000	-0.000002	1.000000
2	0.000001	0.000000	0.000000	0.000001	-0.000000	0.000000	1.000000
3	0.000000	-0.000000	0.000000	0.000001	-0.000001	-0.000002	1.000000
4	0.000000	0.000000	0.000000	-0.000002	-0.000001	-0.000002	1.000000
[shoulder_up_left]
# Tx<tab>Ty<tab>Tz<tab>Rx<tab>Ry<tab>Rz<tab>BoneScaleFactor<CR>
1	0.000000	-0.000000	0.000000	0.000000	-0.000000	0.000000	1.000000
2	0.000001	-0.000000	0.000000	0.000000	-0.000000	-0.131124	1.000000
3	0.000001	-0.000000	0.000000	0.000000	0.000000	-0.512445	1.000000
4	0.000001	-0.000000	0.000000	0.000000	-0.000000	-1.126203	1.000000
[bicep_up_left]
# Tx<tab>Ty<tab>Tz<tab>Rx<tab>Ry<tab>Rz<tab>BoneScaleFactor<CR>
1	0.000000	-0.000000	0.000000	-0.000000	0.000000	0.000000	1.000000
2	0.000000	-0.000000	-0.000000	-0.000001	0.000000	0.000000	1.000000
3	-0.000001	0.000000	-0.000000	-0.000000	-0.000000	0.000000	1.000000
4	-0.000001	-0.000000	-0.000000	0.000000	-0.000000	-0.000000	1.000000
[forearm_up_left]
# Tx<tab>Ty<tab>Tz<tab>Rx<tab>Ry<tab>Rz<tab>BoneScaleFactor<CR>
1	0.000000	0.000000	0.000000	-0.000000	0.000000	-0.000000	1.000000
2	0.000000	0.000000	-0.000000	0.000000	-0.000000	0.000000	1.000000
3	-0.000001	0.000000	0.000000	-0.000000	-0.000000	-0.000000	1.000000
4	0.000000	0.000001	0.000000	-0.000000	-0.000000	0.000000	1.000000
[hand_up_left]
# Tx<tab>Ty<tab>Tz<tab>Rx<tab>Ry<tab>Rz<tab>BoneScaleFactor<CR>
1	0.000000	0.000001	0.000000	0.000000	0.000000	0.000000	1.000000
2	-0.000001	0.000001	0.000000	-0.011047	-0.135115	-0.024965	1.000000
3	-0.000001	0.000001	-0.000000	-0.042839	-0.528094	-0.097427	1.000000
4	0.000000	0.000001	0.000000	-0.092983	-1.160804	-0.213634	1.000000
[shoulder_down_left]
# Tx<tab>Ty<tab>Tz<tab>Rx<tab>Ry<tab>Rz<tab>BoneScaleFactor<CR>
1	0.000000	-0.000001	0.000000	0.000000	-0.000000	0.000000	1.000000
2	0.000001	-0.000001	0.000000	0.000000	-0.000000	0.000000	1.000000
3	0.000000	0.000000	-0.000000	0.000000	-0.000000	0.000000	1.000000
4	-0.000001	0.000000	0.000000	0.000000	0.000000	0.000000	1.000000
[bicep_down_left]
# Tx<tab>Ty<tab>Tz<tab>Rx<tab>Ry<tab>Rz<tab>BoneScaleFactor<CR>
1	0.000002	0.000000	0.000000	0.000000	-0.000000	0.000000	1.000000
2	0.000002	-0.000001	0.000000	-0.120262	-0.110885	0.011739	1.000000
3	0.000002	-0.000001	0.000000	-0.470278	-0.433342	0.047218	1.000000
4	0.000000	-0.000000	0.000000	-1.034601	-0.952324	0.108504	1.000000
[forearm_down_left]
# Tx<tab>Ty<tab>Tz<tab>Rx<tab>Ry<tab>Rz<tab>BoneScaleFactor<CR>
1	0.000000	0.000000	0.000000	0.000001	0.000000	0.000000	1.000000
2	0.000000	0.000000	-0.000000	-0.088414	-0.075942	-0.015670	1.000000
3	0.000000	-0.000001	-0.000000	-0.345374	-0.296886	-0.060586	1.000000
4	0.000000	0.000000	0.000000	-0.758509	-0.652827	-0.130764	1.000000
[hand_down_left]
# Tx<tab>Ty<tab>Tz<tab>Rx<tab>Ry<tab>Rz<tab>BoneScaleFactor<CR>
1	0.000001	-0.000000	0.000000	0.000000	-0.000000	0.000000	1.000000
2	-0.000001	0.000001	0.000000	-0.000000	-0.000000	0.000002	1.000000
3	0.000001	-0.000000	0.000000	0.000000	0.000000	-0.000003	1.000000
4	0.000000	0.000000	0.000000	0.000000	-0.000000	0.000002	1.000000
[Collar_right]
# Tx<tab>Ty<tab>Tz<tab>Rx<tab>Ry<tab>Rz<tab>BoneScaleFactor<CR>
1	0.000000	0.000000	0.000000	-0.000000	-0.000000	0.000002	1.000000
2	-0.000001	0.000000	0.000000	0.000001	-0.000000	0.000000	1.000000
3	0.000000	-0.000000	0.000000	0.000001	0.000001	0.000002	1.000000
4	0.000000	0.000000	0.000000	-0.000002	0.000001	0.000002	1.000000
[shoulder_up_right]
# Tx<tab>Ty<tab>Tz<tab>Rx<tab>Ry<tab>Rz<tab>BoneScaleFactor<CR>
1	0.000000	-0.000000	0.000000	0.000000	0.000000	0.000000	1.000000
2	-0.000001	-0.000000	0.000000	0.019101	0.005196	0.146539	1.000000
3	-0.000001	-0.000000	0.000000	0.074733	0.020033	0.572781	1.000000
4	-0.000001	-0.000000	0.000000	0.164542	0.043052	1.259152	1.000000
[bicep_up_right]
# Tx<tab>Ty<tab>Tz<tab>Rx<tab>Ry<tab>Rz<tab>BoneScaleFactor<CR>
1	0.000000	-0.000000	0.000000	-0.000000	-0.000000	-0.000000	1.000000
2	0.000002	0.000000	-0.000000	-0.000000	-0.000000	-0.000000	1.000000
3	0.000000	0.000000	0.000000	-0.000000	-0.000000	0.000000	1.000000
4	0.000001	0.000000	0.000000	-0.000001	0.000000	0.000000	1.000000
[forearm_up_right]
# Tx<tab>Ty<tab>Tz<tab>Rx<tab>Ry<tab>Rz<tab>BoneScaleFactor<CR>
1	0.000000	0.000000	0.000000	-0.000000	-0.000000	0.000000	1.000000
2	0.000000	-0.000000	-0.000000	-0.105121	-0.087814	0.074262	1.000000
3	0.000000	-0.000002	0.000000	-0.411570	-0.342486	0.291206	1.000000
4	0.000001	-0.000000	0.000000	-0.907169	-0.750194	0.643481	1.000000
[hand_up_right]
# Tx<tab>Ty<tab>Tz<tab>Rx<tab>Ry<tab>Rz<tab>BoneScaleFactor<CR>
1	0.000000	0.000001	0.000000	0.000000	-0.000000	0.000000	1.000000
2	0.000000	0.000000	0.000000	0.009940	0.189418	0.012469	1.000000
3	0.000000	0.000000	0.000000	0.039104	0.740725	0.048942	1.000000
4	-0.000001	-0.000001	0.000000	0.086880	1.629540	0.108357	1.000000
[shoulder_down_right]
# Tx<tab>Ty<tab>Tz<tab>Rx<tab>Ry<tab>Rz<tab>BoneScaleFactor<CR>
1	0.000000	-0.000001	0.000000	0.000000	-0.000000	0.000000	1.000000
2	-0.000001	-0.000001	0.000000	0.000000	-0.000000	0.000000	1.000000
3	0.000000	0.000000	-0.000000	0.000000	-0.000000	0.000000	1.000000
4	0.000001	0.000000	0.000000	0.000000	-0.000000	0.000000	1.000000
[bicep_down_right]
# Tx<tab>Ty<tab>Tz<tab>Rx<tab>Ry<tab>Rz<tab>BoneScaleFactor<CR>
1	-0.000002	0.000000	0.000000	0.000000	-0.000000	0.000000	1.000000
2	-0.000002	-0.000001	0.000000	-0.120262	0.110885	-0.011739	1.000000
3	-0.000002	-0.000001	0.000000	-0.470278	0.433342	-0.047218	1.000000
4	0.000000	-0.000000	0.000000	-1.034601	0.952324	-0.108504	1.000000
[forearm_down_right]
# Tx<tab>Ty<tab>Tz<tab>Rx<tab>Ry<tab>Rz<tab>BoneScaleFactor<CR>
1	0.000000	0.000000	0.000000	0.000001	-0.000000	0.000000	1.000000
2	0.000000	0.000000	-0.000000	-0.088414	0.075942	0.015670	1.000000
3	0.000000	-0.000001	-0.000000	-0.345374	0.296886	0.060586	1.000000
4	0.000000	0.000000	0.000000	-0.758509	0.652827	0.130764	1.000000
[hand_down_right]
# Tx<tab>Ty<tab>Tz<tab>Rx<tab>Ry<tab>Rz<tab>BoneScaleFactor<CR>
1	-0.000001	-0.000000	0.000000	0.000000	0.000000	0.000000	1.000000
2	0.000001	0.000001	0.000000	-0.000000	-0.000000	-0.000002	1.000000
3	-0.000001	-0.000000	0.000000	0.000000	-0.000000	0.000003	1.000000
4	0.000000	0.000000	0.000000	0.000000	-0.000000	-0.000002	1.000000
[hip_left]
# Tx<tab>Ty<tab>Tz<tab>Rx<tab>Ry<tab>Rz<tab>BoneScaleFactor<CR>
1	0.000000	-0.000000	0.000000	0.000000	-0.000000	-0.000000	1.000000
2	0.000000	-0.000000	0.000000	0.000000	-0.000000	-0.000000	1.000000
3	0.000000	-0.000000	0.000000	0.000000	-0.000000	-0.000000	1.000000
4	0.000000	-0.000000	0.000000	0.000000	-0.000000	-0.000000	1.000000
[thigh_left]
# Tx<tab>Ty<tab>Tz<tab>Rx<tab>Ry<tab>Rz<tab>BoneScaleFactor<CR>
1	0.000000	-0.000000	0.000000	0.000001	-0.000000	0.000000	1.000000
2	0.000000	-0.000000	0.000000	0.000001	-0.000000	0.000000	1.000000
3	0.000000	-0.000000	0.000000	0.000001	-0.000000	0.000000	1.000000
4	0.000000	-0.000000	0.000000	0.000001	-0.000000	0.000000	1.000000
[shin_left]
# Tx<tab>Ty<tab>Tz<tab>Rx<tab>Ry<tab>Rz<tab>BoneScaleFactor<CR>
1	0.000000	-0.000000	0.000000	0.000000	0.000000	-0.000000	1.000000
2	0.000000	-0.000000	0.000000	0.000000	0.000000	-0.000000	1.000000
3	0.000000	-0.000000	0.000000	0.000000	0.000000	-0.000000	1.000000
4	0.000000	-0.000000	0.000000	0.000000	0.000000	-0.000000	1.000000
[foot_left]
# Tx<tab>Ty<tab>Tz<tab>Rx<tab>Ry<tab>Rz<tab>BoneScaleFactor<CR>
1	0.000000	-0.000000	0.000000	-0.000000	-0.000000	0.000000	1.000000
2	0.000000	-0.000000	0.000000	-0.000000	-0.000000	0.000000	1.000000
3	0.000000	-0.000000	0.000000	-0.000000	-0.000000	0.000000	1.000000
4	0.000000	-0.000000	0.000000	-0.000000	-0.000000	0.000000	1.000000
[hip_right]
# Tx<tab>Ty<tab>Tz<tab>Rx<tab>Ry<tab>Rz<tab>BoneScaleFactor<CR>
1	-0.000000	-0.000000	0.000000	0.000000	0.000000	0.000000	1.000000
2	-0.000000	-0.000000	0.000000	0.000000	0.000000	0.000000	1.000000
3	-0.000000	-0.000000	0.000000	0.000000	0.000000	0.000000	1.000000
4	-0.000000	-0.000000	0.000000	0.000000	0.000000	0.000000	1.000000
[thigh_right]
# Tx<tab>Ty<tab>Tz<tab>Rx<tab>Ry<tab>Rz<tab>BoneScaleFactor<CR>
1	-0.000000	-0.000000	0.000000	0.000001	0.000000	-0.000000	1.000000
2	-0.000000	-0.000000	0.000000	0.000001	0.000000	-0.000000	1.000000
3	-0.000000	-0.000000	0.000000	0.000001	0.000000	-0.000000	1.000000
4	-0.000000	-0.000000	0.000000	0.000001	0.000000	-0.000000	1.000000
[shin_right]
# Tx<tab>Ty<tab>Tz<tab>Rx<tab>Ry<tab>Rz<tab>BoneScaleFactor<CR>
1	0.000000	-0.000000	0.000000	0.000000	-0.000000	0.000000	1.000000
2	0.000000	-0.000000	0.000000	0.000000	-0.000000	0.000000	1.000000
3	0.000000	-0.000000	0.000000	0.000000	-0.000000	0.000000	1.000000
4	0.000000	-0.000000	0.000000	0.000000	-0.000000	0.000000	1.000000
[foot_right]
# Tx<tab>Ty<tab>Tz<tab>Rx<tab>Ry<tab>Rz<tab>BoneScaleFactor<CR>
1	-0.000000	-0.000000	0.000000	-0.000000	-0.000000	0.000000	1.000000
2	-0.000000	-0.000000	0.000000	-0.000000	-0.000000	0.000000	1.000000
3	-0.000000	-0.000000	0.000000	-0.000000	-0.000000	0.000000	1.000000
4	-0.000000	-0.000000	0.000000	-0.000000	-0.000000	0.000000	1.000000
[EndOfFile]
